<?xml version="1.0" encoding="utf-8"?>
<!-- Generator: Adobe Illustrator 26.0.3, SVG Export Plug-In . SVG Version: 6.00 Build 0)  -->
<svg version="1.1" id="Layer_1" xmlns="http://www.w3.org/2000/svg" xmlns:xlink="http://www.w3.org/1999/xlink" x="0px" y="0px"
	 viewBox="0 0 612 792" style="enable-background:new 0 0 612 792;" xml:space="preserve">
<style type="text/css">
	.st0{fill-rule:evenodd;clip-rule:evenodd;}
	.st1{fill-rule:evenodd;clip-rule:evenodd;fill:#FFFFFF;}
	.st2{fill-rule:evenodd;clip-rule:evenodd;fill:#00B20E;}
	.st3{fill-rule:evenodd;clip-rule:evenodd;fill:#FB0000;}
	.st4{fill-rule:evenodd;clip-rule:evenodd;fill:#FFCD00;}
	.st5{fill-rule:evenodd;clip-rule:evenodd;fill:#00AFFD;}
	.st6{fill-rule:evenodd;clip-rule:evenodd;fill:#F7D002;}
</style>
<g>
	<g>
		<g>
			<path class="st0" d="M205.25,445.1l-32.03,12.4l-1.59,0.58l0.01,0.04c-0.84,0.29-1.67,0.56-2.51,0.83l-1.5,0.43
				c-0.42,0.12-0.85,0.22-1.27,0.3l-0.57,0.14l0,0.02l-1.13,0.26c-0.33,0.08-0.65,0.14-0.98,0.19c-1.76,0.36-3.6,0.65-5.39,0.85
				l0,0.02l-1.52,0.15l0,0.03l-1.2,0.1c-0.37,0.03-0.74,0.04-1.11,0.04l-0.43,0.02c-0.31,0.02-0.63,0.02-0.94,0.02
				c-0.76,0.02-1.54,0.04-2.3,0.03v0.06h-47.76c-7.91,0-14.33-6.42-14.33-14.33V245.6c0-6.51,4.34-12,10.28-13.75l47.97-18.57
				c2.21-1.4,4.83-2.21,7.64-2.21h47.76c17.24,0,31.92,6.15,44.03,18.46c0.9,0.91,1.76,1.84,2.59,2.78l0.24-0.08l48.53-18.79
				c2.21-1.36,4.78-2.12,7.49-2.12v-0.03h41.8c7.43,0,13.54,5.65,14.26,12.89l0.56,3.35l36.84-14.26c2.21-1.4,4.83-2.21,7.64-2.21
				h43.65c7.21,0,13.17,5.32,14.18,12.25l0.55,2.83l33.46-12.95c2.2-1.34,4.77-2.1,7.45-2.1v-0.03h41.72
				c7.91,0,14.33,6.42,14.33,14.33v201.68l0,0.08l0,0.15c0,6.51-4.34,12-10.28,13.75l-50.46,19.53c-1.69,0.66-3.44,0.96-5.15,0.96
				v0.04h-30.33c-4.37,0-8.27-1.95-10.9-5.03l-10.39,4.02c-1.69,0.66-3.44,0.96-5.15,0.96v0.04h-24.45c-4.77,0-9-2.33-11.61-5.93
				l-12.7,4.92c-1.69,0.66-3.44,0.96-5.15,0.96v0.04h-30.33c-4.24,0-8.05-1.84-10.67-4.77l-9.72,3.76
				c-1.69,0.66-3.44,0.96-5.15,0.96v0.04h-31.92c-6.93,0-12.72-4.92-14.04-11.47l-27.02,10.46c-1.69,0.66-3.44,0.96-5.15,0.96v0.04
				h-31.69c-7.91,0-14.33-6.42-14.33-14.33C205.09,446.54,205.14,445.81,205.25,445.1z"/>
			<path class="st1" d="M325.96,380.68v-29.65h11.26l-11.26-79.09v-46.31h21.07l33.76,201.45h-31.92l-7.09-46.4H325.96
				L325.96,380.68z M436.67,427.09h-30.33V225.41h43.65l28.33,145.2l27.31-145.2h41.72v201.68h-30.33V300.4l-26.45,126.68h-24.45
				l-29.46-126.34V427.09z M250.12,378.84c0,13.28-4.68,24.67-14,34.1c-9.24,9.35-20.37,14.07-33.42,14.15v-30.1h0.57
				c4.83,0,8.9-1.74,12.22-5.24c3.32-3.47,4.98-7.58,4.98-12.3V273.96c0-4.83-1.7-8.98-5.05-12.41c-3.4-3.43-7.43-5.13-12.15-5.13
				h-0.57v-31.01c13.13,0.08,24.3,4.79,33.5,14.15c9.28,9.43,13.92,20.75,13.92,33.95V378.84L250.12,378.84z M325.96,225.63v46.31
				l-0.02-0.13l-11.24,79.22h11.26v29.65H310.1l-7.43,46.4h-31.69l34.25-201.45H325.96z M202.7,427.08l-0.34,0H154.6V225.41h47.76
				l0.34,0v31.01h-17.77v140.56h17.77V427.08z"/>
		</g>
		<g>
			<path class="st0" d="M553.44,520.27c-0.48,7.33-5.54,13.42-12.34,15.43l-67.45,26.26c-2.04,0.79-4.14,1.16-6.21,1.16v0.05h-9.93
				c-2.03,0-3.98-0.35-5.79-0.99c-1.85,0.64-3.74,0.94-5.61,0.94v0.05h-9.97c-4.97,0-9.46-2.1-12.61-5.47
				c-8.83,3.28-15.68,5.65-17.79,5.95c-1.35,0.19-2.86,0.29-4.52,0.31c-5.61,0.06-10.93-1.24-15.63-3.62l-4.15,1.61
				c-2.04,0.79-4.14,1.16-6.21,1.16v0.05h-10.38c-2.25,0-4.39-0.43-6.36-1.21c-2.04,0.78-4.13,1.15-6.19,1.15v0.05h-10.38
				c-3.4,0-6.57-0.98-9.24-2.68l-2.95,1.15c-0.43,0.17-0.87,0.32-1.31,0.45l-1.32,0.43l0.02,0.06l-0.63,0.18
				c-0.71,0.2-1.43,0.36-2.15,0.47l0.01,0.03l-1.36,0.25l0,0.02l-0.71,0.11c-0.42,0.06-0.83,0.11-1.24,0.14l-0.71,0.07l0,0.01
				l-0.76,0.06c-0.6,0.05-1.2,0.06-1.78,0.05c-1.07,0-2.13-0.02-3.2-0.05c-0.39-0.01-0.77-0.04-1.15-0.08l-1.43-0.13
				c-0.41-0.04-0.81-0.1-1.21-0.16l-0.01,0.03l-1.36-0.24c-0.46-0.08-0.91-0.17-1.35-0.29l0,0.02l-1.3-0.33
				c-1-0.25-1.95-0.59-2.86-1c-0.39-0.14-0.76-0.29-1.14-0.46l-0.01,0.02l-1.17-0.52c-0.46-0.21-0.91-0.43-1.35-0.68l-1.1-0.62
				c-0.46-0.26-0.91-0.53-1.34-0.83l-0.01,0.02l-1.04-0.71c-0.35-0.24-0.69-0.49-1.01-0.74l-0.82-0.65
				c-0.3-0.24-0.59-0.49-0.88-0.75l-0.77-0.7c-0.47-0.43-0.91-0.88-1.32-1.34l-0.22-0.23c-0.54-0.56-1.03-1.14-1.47-1.75
				c-0.23-0.28-0.45-0.56-0.66-0.84l-0.03,0.02l-0.64-0.87c-0.21-0.29-0.41-0.58-0.6-0.88l-0.6-0.92c-0.42-0.65-0.79-1.33-1.11-2.01
				l-0.35-0.68l-0.04,0.02l-0.51-1.04l-0.4-0.88l-0.47-1.09l-0.32-0.81l-0.01,0.01l-0.41-1.13c-0.21-0.57-0.39-1.14-0.53-1.72
				l-0.1-0.32c-0.13-0.41-0.24-0.82-0.33-1.23l-0.37-1.52l-0.01,0l-0.26-1.24c-0.07-0.33-0.13-0.66-0.18-0.99l-0.17-1.03l-0.1-0.75
				l-0.03,0l-0.16-1.32l-0.18-2.04c-0.47-5.99,2.18-11.51,6.59-14.96c-5.87-8.66-8.64-19.16-3.21-33.67
				c1.58-4.25,3.94-8.01,6.97-11.17c3.03-3.16,6.69-5.68,10.87-7.43c0.42-0.17,0.84-0.33,1.26-0.47l66.51-25.89
				c1.24-0.55,2.52-1.02,3.85-1.42c3.26-0.98,6.68-1.47,10.25-1.47c3.18,0,6.34,0.41,9.48,1.23c2.22,0.58,4.34,1.36,6.34,2.35
				l2.48-0.97c2.29-1.13,4.88-1.76,7.6-1.76h10.38c2.21,0,4.33,0.42,6.27,1.18c1.94-0.76,4.06-1.18,6.27-1.18H444
				c3.57,0,6.89,1.08,9.64,2.94l2.47-0.96l0.64-0.27c4.1-1.7,8.41-2.55,12.9-2.55c5.29,0,10.14,1.07,14.55,3.2l2-0.78
				c1.34-0.61,2.77-1.05,4.29-1.3c0.95-0.16,1.9-0.23,2.84-0.24v-0.03h10.9c1.85,0,3.63,0.29,5.3,0.83
				c1.63-0.51,3.36-0.78,5.14-0.78v-0.05h10.9c1.86,0,3.66,0.3,5.34,0.84c1.64-0.52,3.38-0.8,5.17-0.79v-0.05h10.9
				c9.55,0,17.28,7.74,17.28,17.28c0,1.45-0.18,2.86-0.52,4.2L553.44,520.27z"/>
			<path class="st1" d="M402.07,501.99c0.08,4.8-1.17,8.91-3.74,12.32c-1.69,2.31-4.07,3.94-7.15,4.89
				c-1.65,0.52-3.58,0.77-5.77,0.77c-4.08,0-7.45-1.01-10.14-3.03c-2.23-1.65-4-3.9-5.31-6.74c-1.3-2.85-2.07-6.11-2.29-9.79
				l9.89-0.71c0.45,4.02,1.51,6.92,3.19,8.73c1.25,1.37,2.69,2.01,4.3,1.94c2.27-0.08,4.08-1.19,5.43-3.36
				c0.7-1.07,1.05-2.58,1.05-4.57c0-2.87-1.3-5.71-3.91-8.53c-2.05-1.94-5.12-4.85-9.23-8.75c-3.45-3.33-5.89-6.33-7.32-8.97
				c-1.54-2.97-2.31-6.2-2.31-9.68c0-6.27,2.1-11.02,6.33-14.25c2.61-1.95,5.84-2.92,9.7-2.92c3.71,0,6.88,0.83,9.51,2.48
				c2.05,1.28,3.72,3.07,4.98,5.38c1.27,2.3,2.03,4.96,2.29,7.96l-9.98,1.81c-0.3-2.8-1.11-5-2.43-6.57
				c-0.96-1.12-2.34-1.69-4.14-1.69c-1.91,0-3.36,0.84-4.35,2.53c-0.81,1.36-1.21,3.05-1.21,5.06c0,3.15,1.36,6.37,4.08,9.62
				c1.03,1.25,2.58,2.72,4.63,4.4c2.43,2.03,4.03,3.43,4.8,4.23c2.57,2.57,4.56,5.1,5.95,7.59c0.67,1.17,1.2,2.26,1.6,3.25
				C401.51,497.85,402.03,500.04,402.07,501.99L402.07,501.99z M421.07,489.92v29.2h-10.38v-68.94h10.38v29.28h12.55v-29.28H444
				v68.94h-10.38v-29.2H421.07L421.07,489.92z M469.65,449.33c4.58,0,8.47,1.61,11.67,4.84c3.22,3.23,4.82,7.11,4.82,11.66v37.65
				c0,4.58-1.61,8.48-4.84,11.68c-3.21,3.21-7.1,4.82-11.64,4.82c-4.58,0-8.47-1.61-11.66-4.84c-3.19-3.23-4.78-7.11-4.78-11.66
				v-37.65c0-4.58,1.61-8.48,4.84-11.68C461.27,450.93,465.15,449.33,469.65,449.33L469.65,449.33z M475.29,465.65
				c0-1.65-0.58-3.05-1.73-4.21c-1.16-1.15-2.56-1.73-4.21-1.73c-1.65,0-3.06,0.58-4.23,1.73c-1.18,1.16-1.76,2.56-1.76,4.21v37.7
				c0,1.65,0.58,3.05,1.76,4.21c1.17,1.15,2.58,1.73,4.23,1.73c1.65,0,3.05-0.58,4.21-1.73c1.15-1.16,1.73-2.56,1.73-4.21V465.65
				L475.29,465.65z M536.08,450.18h10.9l-10.78,68.94h-9.93l-5.89-37.79l-5.51,37.79h-9.97l-11.57-68.94h10.9l5.45,36.92l5-36.92
				h10.9l5.45,36.88L536.08,450.18z"/>
		</g>
		<g>
			<path class="st0" d="M129.44,446.38l4.94-18.72l64.98,7.37l0.08,2.16l4.65-6.17l-1.98-14.33l13.68,4.71l13.02-6.31l-0.25,14.46
				l10.02,10.42l-13.83,4.23l-2.75,5.15h12.34l0.65-5.24h52.22l1.57-16.59l78.83,8.46l-6.23,57.98l-4.05-0.4l-2.37,19.42l4.11,0.61
				l-7.72,55.73l-22.16-2.93l-7.28,4.52l-1.52,6.45c-0.54,2.3-4.84,3.96-6.65,2.44l-5.2-4.38l0.28,5.5h-59.78L248.81,565h-9.16v13
				l-60.47-0.24l0.38-8.75l-35.55-2.93l0.09-5.52l-16.43-1.86c-6.5,8.57-16.04,14.24-29.31,16.37c-20.11,3.22-34.1-5.1-43.88-19.66
				c-7.7-11.47-12.04-26.85-14.57-42.64c-2.57-16.08-3.38-30.9,0.88-43.44c5.23-15.39,16.42-26.01,37.48-29.39
				c16.52-2.64,28.37,1.96,36.87,9.62l0.44-0.21l4.47-12.66l9.27,9.71L129.44,446.38z"/>
			<path class="st0" d="M91.53,493.16l25.15-4.03c-1.68-10.47-8.21-37.05-35.78-32.63c-27.58,4.42-28.79,26.25-24.41,53.62
				c4.38,27.37,14.38,52.33,39.24,48.35c24.86-3.98,29.11-26.95,24.02-58.7l-31.65,5.07l3.11,19.43l5.54-0.89
				c0,0,5.01,16.55-2.3,17.72c-3.91,0.63-7.42-10.67-11.81-35.17c-3.65-20.35-1.56-29.02,1.17-29.78
				C86.61,475.38,89.89,479.8,91.53,493.16L91.53,493.16z M146.3,543.88l-24.47-2.77l25.09-95.1l36.21,4.11l3.88,102.62l-25.96-2.14
				l0.28-16.49l-12.61-1.43L146.3,543.88L146.3,543.88z M161.67,513.78l0.74-44.45l-9.4,43.47L161.67,513.78L161.67,513.78z
				 M196.72,561.05l4.09-94.85h34.59l7.34,52.41l7.13-57.65h36.06l5.24,103.13h-25.58l-1.05-72.11l-9.01,56.18h-24.11l-8.59-52.2
				v65.19L196.72,561.05L196.72,561.05z M303.87,446.04l45.23,4.86l-2.65,24.72l-21.4-2.12l-1.51,14.02l17.41,1.34l-2.91,23.8
				l-15.68-0.97l-1.77,13.18l19.55,2.92l-3.15,22.71l-42.48-5.63L303.87,446.04z"/>
			<g>
				<path class="st2" d="M91.53,493.16l25.15-4.03c-1.68-10.47-8.21-37.05-35.78-32.63c-27.58,4.42-28.79,26.25-24.41,53.62
					c4.38,27.37,14.38,52.33,39.24,48.35c24.86-3.98,29.11-26.95,24.02-58.7l-31.65,5.07l3.11,19.43l5.54-0.89
					c0,0,5.01,16.55-2.3,17.72c-3.91,0.63-7.42-10.67-11.81-35.17c-3.65-20.35-1.56-29.02,1.17-29.78
					C86.61,475.38,89.89,479.8,91.53,493.16z"/>
				<path class="st3" d="M146.3,543.88l-24.47-2.77l25.09-95.1l36.21,4.11l3.88,102.62l-25.96-2.14l0.27-16.49l-12.61-1.43
					L146.3,543.88L146.3,543.88z M161.67,513.78l0.74-44.45l-9.4,43.47L161.67,513.78z"/>
				<polygon class="st4" points="196.72,561.05 200.8,466.19 235.39,466.19 242.73,518.6 249.85,460.95 285.91,460.95 
					291.15,564.09 265.58,564.09 264.53,491.97 255.51,548.15 231.41,548.15 222.81,495.96 222.81,561.15 				"/>
				<polygon class="st5" points="303.87,446.04 349.1,450.9 346.45,475.61 325.04,473.49 323.54,487.52 340.95,488.85 
					338.04,512.66 322.36,511.68 320.59,524.86 340.14,527.78 336.99,550.49 294.51,544.87 				"/>
			</g>
			<g>
				<polygon class="st6" points="133.01,464.96 125.84,463.66 119.84,467.79 118.86,460.57 113.08,456.13 119.65,452.98 
					122.08,446.11 127.11,451.38 134.39,451.56 130.93,457.98 				"/>
				<polygon class="st6" points="217.34,447.32 212.57,440.5 204.37,439.04 209.38,432.39 208.24,424.14 216.11,426.85 
					223.6,423.22 223.46,431.54 229.23,437.55 221.27,439.98 				"/>
				<polygon class="st6" points="315.77,574.91 310.13,570.15 302.77,570.76 305.55,563.92 302.7,557.11 310.06,557.65 
					315.66,552.83 317.43,560 323.73,563.83 317.47,567.72 				"/>
			</g>
		</g>
	</g>
</g>
</svg>
